<svg width="136" height="49" viewBox="0 0 136 49" fill="none" xmlns="http://www.w3.org/2000/svg">
<path d="M48.27 10.78C51.2567 10.78 53.8933 11.3867 56.18 12.6C58.5133 13.7667 60.3333 15.5867 61.64 18.06C62.9933 20.4867 63.67 23.6133 63.67 27.44V49H52.75V29.12C52.75 26.0867 52.12 23.8467 50.86 22.4C49.6 20.9533 47.8267 20.23 45.54 20.23C43.9533 20.23 42.53 20.6033 41.27 21.35C40.01 22.05 39.03 23.1233 38.33 24.57C37.63 26.0167 37.28 27.86 37.28 30.1V49H26.36V29.12C26.36 26.0867 25.73 23.8467 24.47 22.4C23.2567 20.9533 21.5067 20.23 19.22 20.23C17.6333 20.23 16.21 20.6033 14.95 21.35C13.69 22.05 12.71 23.1233 12.01 24.57C11.31 26.0167 10.96 27.86 10.96 30.1V49H0.0399933V11.34H10.47V21.63L8.50999 18.62C9.81666 16.0533 11.66 14.1167 14.04 12.81C16.4667 11.4567 19.22 10.78 22.3 10.78C25.7533 10.78 28.7633 11.6667 31.33 13.44C33.9433 15.1667 35.67 17.8267 36.51 21.42L32.66 20.37C33.92 17.43 35.9267 15.0967 38.68 13.37C41.48 11.6433 44.6767 10.78 48.27 10.78Z" fill="currentColor"/>
<path d="M74.4091 49V4.2L79.3091 9.1H64.6091V0H85.7491V49H74.4091Z" fill="currentColor"/>
<path d="M119.461 10.78C122.448 10.78 125.108 11.3867 127.441 12.6C129.821 13.7667 131.688 15.5867 133.041 18.06C134.395 20.4867 135.071 23.6133 135.071 27.44V49H124.151V29.12C124.151 26.0867 123.475 23.8467 122.121 22.4C120.815 20.9533 118.948 20.23 116.521 20.23C114.795 20.23 113.231 20.6033 111.831 21.35C110.478 22.05 109.405 23.1467 108.611 24.64C107.865 26.1333 107.491 28.0467 107.491 30.38V49H96.5712V11.34H107.001V21.77L105.041 18.62C106.395 16.1 108.331 14.1633 110.851 12.81C113.371 11.4567 116.241 10.78 119.461 10.78Z" fill="currentColor"/>
</svg>
